<svg width="115" height="32" viewBox="0 0 115 32" fill="none" xmlns="http://www.w3.org/2000/svg">
<path d="M20.549 7.51572C18.2756 5.24948 15.2519 4 12.0379 4C5.4013 4 0 9.38204 0 16C0 22.618 5.39904 28 12.0379 28C15.2542 28 18.2756 26.7528 20.549 24.4843C22.8224 22.218 24.0758 19.2039 24.0758 16C24.0758 12.7961 22.8246 9.78196 20.549 7.51572ZM4.23401 23.3342C4.07988 23.1376 3.93482 22.9365 3.79429 22.7287C3.51776 22.3129 3.2707 21.8746 3.05991 21.4182C2.90125 21.0748 2.76072 20.7223 2.64285 20.3608C2.44566 19.7575 2.30966 19.1294 2.2258 18.4786C2.14194 17.8256 2.11247 17.1501 2.12607 16.4474C2.185 13.3994 2.55899 11.1015 4.25441 8.79232C4.61026 8.30879 5.01145 7.86368 5.4489 7.46149C5.03865 7.90661 4.67599 8.38787 4.37 8.90755C3.05991 11.1286 3.04631 12.8887 3.02591 15.1165C3.02138 15.6724 3.01684 16.244 2.99191 16.8722C2.93525 18.3227 2.95564 19.5225 3.23897 20.6703C3.56763 22.0011 4.20907 23.2461 5.09305 24.29C5.05451 24.2516 5.01372 24.2131 4.97518 24.1747C4.71226 23.9081 4.4652 23.6279 4.23401 23.3342ZM5.21091 23.6031C5.14291 23.5127 5.07718 23.4223 5.01145 23.3297C4.88225 23.1444 4.75986 22.9546 4.64653 22.7603C4.5332 22.566 4.42667 22.3649 4.32694 22.1593C4.08214 21.6464 3.88495 21.1064 3.74669 20.5438C3.64242 20.1235 3.57669 19.692 3.53816 19.2468C3.47243 18.5057 3.4815 17.724 3.51323 16.8902C3.55176 15.8983 3.54269 15.0284 3.55856 14.2218C3.56083 14.0614 3.56536 13.901 3.57216 13.7451C3.57443 13.666 3.57896 13.5892 3.58123 13.5123C3.58803 13.3564 3.59936 13.205 3.61069 13.0514C3.61749 12.9746 3.62429 12.9 3.63109 12.8255C3.64469 12.6741 3.66282 12.5249 3.68322 12.3758C3.69456 12.3013 3.70589 12.2267 3.71722 12.1521C3.87588 11.1873 4.18867 10.2361 4.81879 9.16965C5.37411 8.22971 6.10848 7.4389 6.95393 6.80173C6.13342 7.51572 5.47157 8.38336 5.00692 9.37074C4.06175 11.3726 4.20454 12.7599 4.36774 14.3664C4.4584 15.2499 4.55133 16.1627 4.4856 17.3105C4.46973 17.5726 4.4516 17.8279 4.43573 18.0764C4.36774 19.0299 4.30427 19.9292 4.44027 20.7901C4.70319 22.4688 5.5237 24.0121 6.759 25.1621C6.62074 25.0559 6.48701 24.9452 6.35554 24.8322C6.18781 24.6831 6.02462 24.5295 5.86822 24.369C5.79116 24.2877 5.7141 24.2064 5.6393 24.1228C5.4897 23.9556 5.34691 23.7816 5.21091 23.6031ZM6.5278 24.3261C6.46207 24.2493 6.39634 24.1725 6.33288 24.0934C6.20595 23.9352 6.08582 23.7703 5.97475 23.6031C5.86142 23.4336 5.75716 23.2596 5.65743 23.0812C5.58263 22.9433 5.51237 22.8032 5.44664 22.6609C5.34011 22.4304 5.24264 22.1954 5.15878 21.9537C5.12478 21.8565 5.09305 21.7571 5.06358 21.6554C5.00465 21.4543 4.95478 21.251 4.91172 21.0454C4.89132 20.9414 4.87319 20.8375 4.85505 20.7336C4.73492 19.9608 4.78252 19.1497 4.84599 18.2595C4.86639 17.9635 4.88905 17.6562 4.90719 17.3421C5.09758 14.0433 3.99601 12.5091 5.38997 9.55602C5.4353 9.45886 5.4829 9.36622 5.5305 9.27132C5.62796 9.08379 5.73449 8.90529 5.84556 8.72905C5.95662 8.55281 6.07675 8.38562 6.19915 8.22293C6.44847 7.89757 6.72046 7.59706 7.01512 7.31915C7.30978 7.0435 7.62257 6.79044 7.9535 6.56675C8.20055 6.39729 8.45895 6.24365 8.72187 6.10356C8.7536 6.08548 8.7876 6.07193 8.8216 6.05611C7.35511 6.91922 6.26261 8.22067 5.66196 9.82715C4.92305 11.8042 5.24491 13.0604 5.5849 14.389C5.83423 15.3561 6.09035 16.357 5.98155 17.7646C5.94529 18.2414 5.87502 18.6865 5.80703 19.1181C5.7073 19.7507 5.6121 20.3495 5.6461 20.9369C5.76169 23.0201 6.84966 24.8209 8.43855 25.8738C8.33428 25.8174 8.23229 25.7586 8.13256 25.6976C7.70417 25.4333 7.30525 25.1214 6.94259 24.7712C6.79753 24.6311 6.65927 24.4843 6.52554 24.3329L6.5278 24.3261ZM18.9782 23.1128C18.8853 23.2235 18.7878 23.3342 18.6904 23.4404C18.024 24.1702 17.2692 24.7938 16.4124 25.3022C17.3304 24.7057 18.1419 23.9533 18.8762 23.0224C20.583 20.8556 21.4964 17.5613 21.3174 14.215C21.2108 12.2109 20.5739 10.3039 19.5154 8.7765C20.753 10.392 21.4987 12.4459 21.5871 14.6737C21.6098 15.2657 21.5962 15.8577 21.544 16.4429C21.5282 16.6372 21.5055 16.8337 21.4806 17.0258C21.1814 19.3485 20.3133 21.5266 18.9782 23.1105V23.1128ZM7.20778 24.299C7.15339 24.2267 7.09899 24.1544 7.04686 24.0798C6.42127 23.1828 6.02915 22.0983 5.96342 20.9166C5.95662 20.7991 5.95662 20.6816 5.95889 20.5619C5.97929 19.8456 6.15608 19.0842 6.25581 18.2256C6.27168 18.0832 6.28754 17.9364 6.29888 17.7872C6.35781 17.0371 6.31474 16.3977 6.22635 15.8215C6.21275 15.7402 6.19915 15.6588 6.18555 15.5775C6.06995 14.9381 5.90449 14.3709 5.76849 13.8083C5.75263 13.7383 5.73449 13.6682 5.71863 13.5982C5.6869 13.4581 5.65743 13.3158 5.6325 13.1757C5.46704 12.2516 5.46024 11.2709 5.96115 9.93561C6.57767 8.28846 7.7155 7.04124 9.09359 6.25946C9.34292 6.11712 9.60131 5.9951 9.86877 5.88891C10.1929 5.76012 10.5306 5.6607 10.8774 5.58614C10.338 5.73301 9.82797 5.94992 9.35199 6.23687C7.90136 7.11354 6.827 8.54152 6.32608 10.2564C5.7345 12.2854 6.25808 13.4875 6.7658 14.6488C7.19192 15.6272 7.6339 16.6372 7.47978 18.212C7.42538 18.7701 7.28258 19.2672 7.14432 19.7507C7.01059 20.2162 6.88593 20.6545 6.85873 21.0883C6.76806 22.6044 7.26672 24.0211 8.26402 25.0785C8.79214 25.6366 9.42452 26.0546 10.1158 26.3099C8.95533 25.9665 7.94216 25.2548 7.20778 24.299ZM20.3495 19.466C20.2339 19.8275 20.1047 20.1823 19.9619 20.5234C19.8191 20.8646 19.6605 21.1945 19.4905 21.5108C19.2344 21.9853 18.9465 22.4259 18.6292 22.8281C18.5453 22.9343 18.4614 23.0382 18.3753 23.1399C17.3825 24.3171 16.1858 25.2435 14.6196 25.8738C16.1722 25.1644 17.3576 24.1612 18.4478 22.6654C20.0254 20.5031 20.8595 17.0958 20.6283 13.7744C20.4878 11.7477 19.8463 9.90623 18.7788 8.44662C18.4637 8.01732 18.1147 7.63095 17.7384 7.28752C18.1577 7.63547 18.5453 8.02862 18.8944 8.46244C20.1365 10.0102 20.8867 12.0324 21.0046 14.2308C21.0567 15.2227 21.0114 16.2237 20.8686 17.1998C20.8119 17.5907 20.7394 17.9748 20.6532 18.3544C20.5671 18.7339 20.4651 19.1045 20.3495 19.4683V19.466ZM11.2582 26.3664C10.5805 26.2873 9.94357 26.0614 9.38372 25.7157C9.29305 25.6592 9.20466 25.6027 9.11853 25.5417C9.08453 25.5169 9.05053 25.492 9.01653 25.4671C7.8175 24.5634 7.04006 23.0834 7.05819 21.373C7.05819 21.2826 7.06272 21.19 7.06726 21.0973C7.08085 20.8872 7.11939 20.6726 7.17152 20.4511C7.27578 20.0105 7.43444 19.5428 7.55231 19.0322C7.58177 18.9034 7.60897 18.7746 7.63164 18.6391C7.6543 18.5057 7.6747 18.3679 7.6883 18.2278C7.71097 18.0064 7.72003 17.794 7.72003 17.5929C7.72003 17.4912 7.72003 17.3941 7.71323 17.2969C7.70417 17.1049 7.68604 16.9219 7.6611 16.7456C7.6475 16.6575 7.6339 16.5716 7.61804 16.488C7.55457 16.1514 7.46391 15.8396 7.35965 15.5458C7.22818 15.1776 7.07859 14.8364 6.92899 14.4952C6.87006 14.3596 6.81113 14.2241 6.75446 14.0885C6.64113 13.8174 6.53687 13.5417 6.45527 13.2525C6.41447 13.1079 6.37821 12.9588 6.34874 12.8051C6.21955 12.116 6.22861 11.3252 6.52554 10.3084C6.55727 10.1977 6.59127 10.0915 6.62753 9.98531C6.70007 9.77292 6.78166 9.56731 6.87006 9.36848C6.91539 9.26906 6.96072 9.17191 7.01059 9.07475C7.59084 7.92242 8.44988 7.0209 9.45852 6.41085C10.3992 5.84146 11.4849 5.55903 12.6454 5.55903C13.0941 5.55903 13.5565 5.60196 14.0234 5.68556C14.1617 5.71041 14.2977 5.73979 14.4337 5.77142C13.9078 5.65167 13.3843 5.59066 12.8765 5.59066C11.7274 5.59066 10.6825 5.88891 9.77131 6.47863C8.37735 7.37338 7.39138 8.8601 6.99246 10.6654C6.52554 12.7803 7.24178 13.9077 7.9331 14.9945C8.57228 16 9.17519 16.9512 8.97346 18.6594C8.9032 19.2468 8.67427 19.7462 8.45441 20.2275C8.28895 20.5867 8.13482 20.9234 8.06909 21.2578C7.80617 22.618 8.12122 23.9623 8.93493 24.9475C9.68291 25.8513 10.7822 26.3709 11.9495 26.3709C12.2328 26.3709 12.5162 26.3416 12.7995 26.2806C12.4572 26.3529 12.1195 26.3913 11.7908 26.3913C11.6277 26.3913 11.4667 26.3822 11.3081 26.3664C11.2899 26.3664 11.2718 26.3619 11.2537 26.3596L11.2582 26.3664ZM16.8975 6.88081C16.9904 6.94634 17.0811 7.01412 17.1718 7.08417C17.7112 7.50443 18.1917 8.00377 18.6088 8.57315C19.6514 9.99661 20.2815 11.8223 20.4175 13.7902C20.515 15.1843 20.4221 16.6191 20.1523 17.9703C20.0753 18.3566 19.9846 18.7362 19.8781 19.1068C19.563 20.2184 19.121 21.2487 18.5634 22.1186C18.4705 22.2632 18.3753 22.4056 18.2756 22.5411C17.9855 22.9388 17.6795 23.3139 17.3508 23.6641C16.3603 24.7147 15.1386 25.544 13.3797 26.1314C13.1984 26.1924 13.0171 26.2376 12.838 26.2783C13.1236 26.215 13.4092 26.1246 13.6903 26.0026C15.8617 25.0627 16.9882 23.8494 18.0127 22.3152C19.4701 20.1326 20.2249 16.6078 19.937 13.3384C19.7783 11.5421 19.2502 9.91075 18.4116 8.62286C17.616 7.40275 16.553 6.52382 15.2995 6.04029C15.873 6.25494 16.4079 6.53512 16.8975 6.88081ZM10.8683 26.1156C10.6621 26.0546 10.4626 25.9755 10.2722 25.8806C10.0184 25.7541 9.77811 25.6005 9.55825 25.422C9.50385 25.3768 9.44945 25.3316 9.39732 25.2841C8.40001 24.3758 7.8583 22.9252 8.17562 21.2849C8.32068 20.5325 8.9576 19.7304 9.07999 18.6775C9.51291 15.0036 6.22635 14.6421 7.09672 10.6948C7.22592 10.1141 7.41178 9.57409 7.6475 9.08379C7.7427 8.88722 7.8447 8.69968 7.9535 8.51892C8.06229 8.33817 8.18015 8.16419 8.30482 7.99925C8.36602 7.91565 8.42948 7.83657 8.49521 7.75748C8.75587 7.44342 9.04373 7.16325 9.35199 6.91696C9.50611 6.79269 9.66704 6.67972 9.83024 6.57353C10.0524 6.42892 10.2858 6.30239 10.5261 6.19394C11.2469 5.86857 12.0424 5.70363 12.8788 5.70363C13.3344 5.70363 13.8013 5.7556 14.2773 5.85276C13.8988 5.78046 13.5203 5.73979 13.1463 5.73979C12.0583 5.73979 11.0202 6.05611 10.1453 6.65487C8.78987 7.58351 7.8787 9.14705 7.57497 11.0608C7.21685 13.318 8.13936 14.398 9.0324 15.4464C9.85517 16.4112 10.6303 17.3218 10.381 19.1135C10.2994 19.6897 9.9685 20.1777 9.67384 20.6093C9.47665 20.8985 9.29079 21.1696 9.19559 21.443C8.7536 22.697 8.88733 23.9601 9.56278 24.9113C10.168 25.7631 11.1154 26.2512 12.1648 26.2512C12.3144 26.2512 12.4618 26.2421 12.6114 26.2218C12.3892 26.258 12.1694 26.2783 11.954 26.2783C11.5778 26.2783 11.2129 26.2241 10.8683 26.1224V26.1156ZM7.66564 11.0744C7.97843 9.10412 8.91227 7.61062 10.1974 6.72943C11.0519 6.14423 12.0628 5.83016 13.1463 5.83016C13.6903 5.83016 14.2524 5.90925 14.8236 6.07193C17.5276 6.84466 18.8966 9.68707 19.2502 12.9045C19.6038 16.1198 18.9397 19.71 17.5775 21.9718C16.7388 23.3636 15.9478 24.5679 13.9192 25.6795C13.3253 26.0049 12.727 26.154 12.1648 26.154C10.0274 26.154 8.37961 24.0324 9.28172 21.4679C9.51745 20.8014 10.3334 20.1054 10.4717 19.1226C11.0021 15.3267 6.98792 15.3538 7.66564 11.0744ZM13.8988 25.7948C13.9192 25.7835 13.9418 25.7744 13.9645 25.7609C15.9591 24.6673 16.7524 23.5195 17.6568 22.0192C19.0372 19.7259 19.699 16.1446 19.3409 12.8932C18.9941 9.74129 17.7497 7.44568 15.8685 6.40633C16.8658 6.92148 17.6885 7.69874 18.3254 8.67709C19.1709 9.97628 19.6809 11.6031 19.835 13.3451C19.9937 15.1459 19.8395 17.0394 19.4111 18.7452C19.3636 18.935 19.3114 19.1226 19.257 19.3056C18.9306 20.4127 18.4841 21.4227 17.9288 22.2542C17.616 22.7219 17.2964 23.1602 16.936 23.5715C16.8635 23.6528 16.791 23.7341 16.7139 23.8155C16.4872 24.0572 16.2447 24.2877 15.9773 24.5091C15.8889 24.5837 15.7982 24.656 15.703 24.7283C15.1975 25.1124 14.606 25.4671 13.901 25.7925L13.8988 25.7948ZM19.3001 23.3817C21.1224 21.2216 22.1356 17.9612 22.0064 14.6579C21.9543 13.3135 21.6642 12.0098 21.1678 10.8145C21.3174 11.1354 21.4534 11.463 21.5712 11.7997C21.7253 12.2448 21.8523 12.7034 21.9497 13.1757C22.0789 13.8038 22.1537 14.4523 22.1696 15.1165C22.2195 17.08 21.8273 19.0096 21.0703 20.6906C20.9184 21.0273 20.753 21.3527 20.5716 21.6667C20.3019 22.139 20.0005 22.5841 19.6673 22.9953C19.5562 23.1331 19.4429 23.2664 19.325 23.3975C19.1188 23.6279 18.9012 23.8494 18.6768 24.0595C18.8898 23.8448 19.0961 23.6189 19.2956 23.3817H19.3001ZM4.05495 8.0241C3.94842 8.15289 3.84415 8.28394 3.74442 8.41951C1.95381 10.8597 1.55715 13.2954 1.49596 16.4338C1.46649 17.9883 1.64555 19.3372 2.04447 20.5551C2.3618 21.5244 2.83098 22.4462 3.4203 23.2845C1.74755 21.321 0.736645 18.7791 0.736645 16C0.736645 12.8842 2.00594 10.0644 4.05721 8.0241H4.05495Z" fill="#2BC7E0"/>
<path d="M33.813 9.52438H43.1877V11.5059H35.8961V14.9042H41.6713V16.8857H35.8961V19.2514C35.8961 20.0828 36.5715 20.7562 37.4056 20.7562H43.3758V22.7377H37.1223C35.2954 22.7377 33.813 21.26 33.813 19.4389V9.52213V9.52438Z" fill="#1A1A1A"/>
<path d="M52.8728 9.52438C53.5596 9.52438 54.1761 9.94012 54.43 10.575L59.31 22.7377H57.1318L55.8058 19.3395H49.9353L48.6094 22.7377H46.4312L51.3111 10.575C51.565 9.94012 52.1838 9.52438 52.8683 9.52438H52.8728ZM55.051 17.4528L52.8728 11.9782L50.6946 17.4528H55.051Z" fill="#1A1A1A"/>
<path d="M61.9914 9.52438H67.4834C70.0401 9.52438 71.8375 11.3365 71.8375 13.6773C71.8375 15.1685 71.1938 16.0746 70.5682 16.6598C70.1897 16.9987 69.7726 17.263 69.2989 17.4528L72.309 22.7377H69.9426L67.1978 17.8302H64.0721V22.7377H61.9891V9.52438H61.9914ZM67.4834 15.9435C68.8751 15.9435 69.8202 14.9539 69.7522 13.5372C69.6956 12.3419 68.6824 11.4133 67.4834 11.4133H64.0744V15.9435H67.4834Z" fill="#1A1A1A"/>
<path d="M79.4827 9.52438H86.0717V11.5059H79.8476C79.3104 11.5059 78.8752 11.9397 78.8752 12.4752V15.2815H84.5553V17.263H78.8752V22.7377H76.7922V12.2064C76.7922 10.7242 77.9981 9.52438 79.4827 9.52438Z" fill="#1A1A1A"/>
<path d="M89.8773 9.52438H91.9603V17.4528C91.9603 19.5293 93.4743 21.0386 95.4644 21.0386C97.4545 21.0386 98.9686 19.4344 98.9686 17.4528V9.52438H101.052V17.4528C101.052 20.6613 98.7782 22.9275 95.4644 22.9275C92.1507 22.9275 89.8773 20.6613 89.8773 17.4528V9.52438Z" fill="#1A1A1A"/>
<path d="M105.728 9.52438H107.811V19.2514C107.811 20.0828 108.486 20.7562 109.32 20.7562H114.248V22.7377H109.035C107.208 22.7377 105.725 21.26 105.725 19.4389V9.52213L105.728 9.52438Z" fill="#1A1A1A"/>
</svg>
