<svg width="32" height="32" viewBox="0 0 32 32" fill="none" xmlns="http://www.w3.org/2000/svg">
<path d="M24.4843 7.51572C22.218 5.24948 19.2039 4 16 4C9.3843 4 4 9.38204 4 16C4 22.618 9.38204 28 16 28C19.2062 28 22.218 26.7528 24.4843 24.4843C26.7505 22.218 28 19.2039 28 16C28 12.7961 26.7528 9.78196 24.4843 7.51572ZM8.22293 23.3342C8.06929 23.1376 7.92468 22.9365 7.7846 22.7287C7.50894 22.3129 7.26266 21.8746 7.05253 21.4182C6.89437 21.0748 6.75428 20.7223 6.63679 20.3608C6.44022 19.7575 6.30465 19.1294 6.22105 18.4786C6.13745 17.8256 6.10808 17.1501 6.12163 16.4474C6.18038 13.3994 6.55319 11.1015 8.24327 8.79232C8.598 8.30879 8.99793 7.86368 9.434 7.46149C9.02504 7.90661 8.66353 8.38787 8.3585 8.90755C7.05253 11.1286 7.03898 12.8887 7.01864 15.1165C7.01412 15.6724 7.0096 16.244 6.98475 16.8722C6.92826 18.3227 6.9486 19.5225 7.23103 20.6703C7.55865 22.0011 8.19808 23.2461 9.07927 24.29C9.04086 24.2516 9.00019 24.2131 8.96178 24.1747C8.69968 23.9081 8.4534 23.6279 8.22293 23.3342ZM9.19676 23.6031C9.12898 23.5127 9.06345 23.4223 8.99793 23.3297C8.86914 23.1444 8.74713 22.9546 8.63416 22.7603C8.52118 22.566 8.41499 22.3649 8.31557 22.1593C8.07155 21.6464 7.87498 21.1064 7.73715 20.5438C7.63321 20.1235 7.56769 19.692 7.52928 19.2468C7.46375 18.5057 7.47279 17.724 7.50443 16.8902C7.54284 15.8983 7.5338 15.0284 7.54961 14.2218C7.55187 14.0614 7.55639 13.901 7.56317 13.7451C7.56543 13.666 7.56995 13.5892 7.57221 13.5123C7.57899 13.3564 7.59028 13.205 7.60158 13.0514C7.60836 12.9746 7.61514 12.9 7.62192 12.8255C7.63547 12.6741 7.65355 12.5249 7.67388 12.3758C7.68518 12.3013 7.69648 12.2267 7.70778 12.1521C7.86594 11.1873 8.17774 10.2361 8.80587 9.16965C9.35944 8.22971 10.0915 7.4389 10.9343 6.80173C10.1164 7.51572 9.4566 8.38336 8.99341 9.37074C8.05121 11.3726 8.19356 12.7599 8.35624 14.3664C8.44662 15.2499 8.53926 16.1627 8.47373 17.3105C8.45792 17.5726 8.43984 17.8279 8.42403 18.0764C8.35624 19.0299 8.29298 19.9292 8.42854 20.7901C8.69064 22.4688 9.50857 24.0121 10.74 25.1621C10.6021 25.0559 10.4688 24.9452 10.3378 24.8322C10.1706 24.6831 10.0079 24.5295 9.85201 24.369C9.77518 24.2877 9.69836 24.2064 9.6238 24.1228C9.47467 23.9556 9.33233 23.7816 9.19676 23.6031ZM10.5095 24.3261C10.444 24.2493 10.3785 24.1725 10.3152 24.0934C10.1887 23.9352 10.0689 23.7703 9.9582 23.6031C9.84523 23.4336 9.74129 23.2596 9.64188 23.0812C9.56731 22.9433 9.49727 22.8032 9.43175 22.6609C9.32555 22.4304 9.22839 22.1954 9.14479 21.9537C9.1109 21.8565 9.07927 21.7571 9.0499 21.6554C8.99115 21.4543 8.94144 21.251 8.89851 21.0454C8.87818 20.9414 8.8601 20.8375 8.84203 20.7336C8.72227 19.9608 8.76972 19.1497 8.83299 18.2595C8.85332 17.9635 8.87592 17.6562 8.89399 17.3421C9.08379 14.0433 7.98569 12.5091 9.37526 9.55602C9.42045 9.45886 9.4679 9.36622 9.51535 9.27132C9.6125 9.08379 9.7187 8.90529 9.82941 8.72905C9.94012 8.55281 10.0599 8.38562 10.1819 8.22293C10.4304 7.89757 10.7016 7.59706 10.9953 7.31915C11.289 7.0435 11.6008 6.79044 11.9307 6.56675C12.177 6.39729 12.4346 6.24365 12.6967 6.10356C12.7283 6.08548 12.7622 6.07193 12.7961 6.05611C11.3342 6.91922 10.2452 8.22067 9.64639 9.82715C8.90981 11.8042 9.23065 13.0604 9.56957 14.389C9.81811 15.3561 10.0734 16.357 9.96498 17.7646C9.92883 18.2414 9.85878 18.6865 9.791 19.1181C9.69158 19.7507 9.59669 20.3495 9.63058 20.9369C9.74581 23.0201 10.8304 24.8209 12.4142 25.8738C12.3103 25.8174 12.2086 25.7586 12.1092 25.6976C11.6822 25.4333 11.2845 25.1214 10.923 24.7712C10.7784 24.6311 10.6406 24.4843 10.5072 24.3329L10.5095 24.3261ZM22.9185 23.1128C22.8258 23.2235 22.7287 23.3342 22.6315 23.4404C21.9672 24.1702 21.2148 24.7938 20.3608 25.3022C21.2758 24.7057 22.0847 23.9533 22.8168 23.0224C24.5182 20.8556 25.4287 17.5613 25.2502 14.215C25.144 12.2109 24.5091 10.3039 23.454 8.7765C24.6876 10.392 25.431 12.4459 25.5191 14.6737C25.5417 15.2657 25.5281 15.8577 25.4762 16.4429C25.4604 16.6372 25.4378 16.8337 25.4129 17.0258C25.1147 19.3485 24.2493 21.5266 22.9185 23.1105V23.1128ZM11.1851 24.299C11.1309 24.2267 11.0766 24.1544 11.0247 24.0798C10.4011 23.1828 10.0102 22.0983 9.94464 20.9166C9.93786 20.7991 9.93786 20.6816 9.94012 20.5619C9.96046 19.8456 10.1367 19.0842 10.2361 18.2256C10.2519 18.0832 10.2677 17.9364 10.279 17.7872C10.3378 17.0371 10.2949 16.3977 10.2067 15.8215C10.1932 15.7402 10.1796 15.6588 10.1661 15.5775C10.0508 14.9381 9.8859 14.3709 9.75033 13.8083C9.73451 13.7383 9.71644 13.6682 9.70062 13.5982C9.66899 13.4581 9.63962 13.3158 9.61476 13.1757C9.44982 12.2516 9.44304 11.2709 9.94238 9.93561C10.557 8.28846 11.6912 7.04124 13.065 6.25946C13.3135 6.11712 13.5711 5.9951 13.8377 5.88891C14.1608 5.76012 14.4975 5.6607 14.8432 5.58614C14.3054 5.73301 13.797 5.94992 13.3225 6.23687C11.8765 7.11354 10.8055 8.54152 10.3062 10.2564C9.71644 12.2854 10.2384 13.4875 10.7445 14.6488C11.1693 15.6272 11.6099 16.6372 11.4562 18.212C11.402 18.7701 11.2596 19.2672 11.1218 19.7507C10.9885 20.2162 10.8642 20.6545 10.8371 21.0883C10.7468 22.6044 11.2438 24.0211 12.238 25.0785C12.7645 25.6366 13.3948 26.0546 14.084 26.3099C12.9271 25.9665 11.9172 25.2548 11.1851 24.299ZM24.2854 19.466C24.1702 19.8275 24.0414 20.1823 23.8991 20.5234C23.7567 20.8646 23.5986 21.1945 23.4291 21.5108C23.1738 21.9853 22.8868 22.4259 22.5705 22.8281C22.4869 22.9343 22.4033 23.0382 22.3175 23.1399C21.3278 24.3171 20.1348 25.2435 18.5735 25.8738C20.1213 25.1644 21.303 24.1612 22.3898 22.6654C23.9623 20.5031 24.7938 17.0958 24.5634 13.7744C24.4233 11.7477 23.7838 9.90623 22.7196 8.44662C22.4056 8.01732 22.0576 7.63095 21.6825 7.28752C22.1005 7.63547 22.4869 8.02862 22.8349 8.46244C24.0731 10.0102 24.8209 12.0324 24.9384 14.2308C24.9904 15.2227 24.9452 16.2237 24.8029 17.1998C24.7464 17.5907 24.6741 17.9748 24.5882 18.3544C24.5024 18.7339 24.4007 19.1045 24.2854 19.4683V19.466ZM15.2227 26.3664C14.5472 26.2873 13.9123 26.0614 13.3542 25.7157C13.2638 25.6592 13.1757 25.6027 13.0898 25.5417C13.0559 25.5169 13.022 25.492 12.9881 25.4671C11.7929 24.5634 11.0179 23.0834 11.036 21.373C11.036 21.2826 11.0405 21.19 11.045 21.0973C11.0586 20.8872 11.097 20.6726 11.1489 20.4511C11.2529 20.0105 11.411 19.5428 11.5285 19.0322C11.5579 18.9034 11.585 18.7746 11.6076 18.6391C11.6302 18.5057 11.6505 18.3679 11.6641 18.2278C11.6867 18.0064 11.6957 17.794 11.6957 17.5929C11.6957 17.4912 11.6957 17.3941 11.6889 17.2969C11.6799 17.1049 11.6618 16.9219 11.637 16.7456C11.6234 16.6575 11.6099 16.5716 11.594 16.488C11.5308 16.1514 11.4404 15.8396 11.3365 15.5458C11.2054 15.1776 11.0563 14.8364 10.9072 14.4952C10.8484 14.3596 10.7897 14.2241 10.7332 14.0885C10.6202 13.8174 10.5163 13.5417 10.4349 13.2525C10.3943 13.1079 10.3581 12.9588 10.3288 12.8051C10.2 12.116 10.209 11.3252 10.505 10.3084C10.5366 10.1977 10.5705 10.0915 10.6067 9.98531C10.679 9.77292 10.7603 9.56731 10.8484 9.36848C10.8936 9.26906 10.9388 9.17191 10.9885 9.07475C11.5669 7.92242 12.4233 7.0209 13.4287 6.41085C14.3664 5.84146 15.4487 5.55903 16.6055 5.55903C17.0529 5.55903 17.5138 5.60196 17.9793 5.68556C18.1171 5.71041 18.2527 5.73979 18.3883 5.77142C17.8641 5.65167 17.3421 5.59066 16.836 5.59066C15.6905 5.59066 14.6488 5.88891 13.7405 6.47863C12.351 7.37338 11.3681 8.8601 10.9704 10.6654C10.505 12.7803 11.219 13.9077 11.9081 14.9945C12.5453 16 13.1463 16.9512 12.9452 18.6594C12.8752 19.2468 12.647 19.7462 12.4278 20.2275C12.2628 20.5867 12.1092 20.9234 12.0437 21.2578C11.7816 22.618 12.0956 23.9623 12.9068 24.9475C13.6524 25.8513 14.7483 26.3709 15.9119 26.3709C16.1943 26.3709 16.4767 26.3416 16.7592 26.2806C16.418 26.3529 16.0813 26.3913 15.7537 26.3913C15.591 26.3913 15.4306 26.3822 15.2725 26.3664C15.2544 26.3664 15.2363 26.3619 15.2182 26.3596L15.2227 26.3664ZM20.8443 6.88081C20.9369 6.94634 21.0273 7.01412 21.1177 7.08417C21.6554 7.50443 22.1344 8.00377 22.5502 8.57315C23.5895 9.99661 24.2177 11.8223 24.3532 13.7902C24.4504 15.1843 24.3577 16.6191 24.0889 17.9703C24.0121 18.3566 23.9217 18.7362 23.8155 19.1068C23.5014 20.2184 23.0608 21.2487 22.505 22.1186C22.4124 22.2632 22.3175 22.4056 22.218 22.5411C21.9288 22.9388 21.6238 23.3139 21.2962 23.6641C20.3088 24.7147 19.0909 25.544 17.3376 26.1314C17.1568 26.1924 16.9761 26.2376 16.7976 26.2783C17.0823 26.215 17.367 26.1246 17.6471 26.0026C19.8117 25.0627 20.9347 23.8494 21.9559 22.3152C23.4088 20.1326 24.1612 16.6078 23.8742 13.3384C23.7161 11.5421 23.1896 9.91075 22.3536 8.62286C21.5605 7.40275 20.5008 6.52382 19.2514 6.04029C19.823 6.25494 20.3562 6.53512 20.8443 6.88081ZM14.8341 26.1156C14.6285 26.0546 14.4297 25.9755 14.2399 25.8806C13.9868 25.7541 13.7473 25.6005 13.5281 25.422C13.4739 25.3768 13.4197 25.3316 13.3677 25.2841C12.3736 24.3758 11.8336 22.9252 12.1499 21.2849C12.2945 20.5325 12.9294 19.7304 13.0514 18.6775C13.483 15.0036 10.2067 14.6421 11.0744 10.6948C11.2032 10.1141 11.3884 9.57409 11.6234 9.08379C11.7183 8.88722 11.82 8.69968 11.9285 8.51892C12.0369 8.33817 12.1544 8.16419 12.2787 7.99925C12.3397 7.91565 12.4029 7.83657 12.4685 7.75748C12.7283 7.44342 13.0153 7.16325 13.3225 6.91696C13.4762 6.79269 13.6366 6.67972 13.7993 6.57353C14.0207 6.42892 14.2534 6.30239 14.4929 6.19394C15.2114 5.86857 16.0045 5.70363 16.8383 5.70363C17.2924 5.70363 17.7579 5.7556 18.2323 5.85276C17.855 5.78046 17.4777 5.73979 17.1049 5.73979C16.0203 5.73979 14.9855 6.05611 14.1133 6.65487C12.7622 7.58351 11.8539 9.14705 11.5511 11.0608C11.1941 13.318 12.1137 14.398 13.004 15.4464C13.8241 16.4112 14.5969 17.3218 14.3483 19.1135C14.267 19.6897 13.9371 20.1777 13.6434 20.6093C13.4468 20.8985 13.2615 21.1696 13.1666 21.443C12.726 22.697 12.8593 23.9601 13.5327 24.9113C14.1359 25.7631 15.0804 26.2512 16.1265 26.2512C16.2757 26.2512 16.4225 26.2421 16.5716 26.2218C16.3502 26.258 16.131 26.2783 15.9164 26.2783C15.5413 26.2783 15.1776 26.2241 14.8341 26.1224V26.1156ZM11.6438 11.0744C11.9556 9.10412 12.8865 7.61062 14.1676 6.72943C15.0194 6.14423 16.0271 5.83016 17.1071 5.83016C17.6494 5.83016 18.2098 5.90925 18.7791 6.07193C21.4747 6.84466 22.8394 9.68707 23.1919 12.9045C23.5443 16.1198 22.8823 19.71 21.5244 21.9718C20.6884 23.3636 19.8998 24.5679 17.8776 25.6795C17.2856 26.0049 16.6891 26.154 16.1288 26.154C13.9981 26.154 12.3555 24.0324 13.2548 21.4679C13.4897 20.8014 14.3031 20.1054 14.441 19.1226C14.9697 15.3267 10.9682 15.3538 11.6438 11.0744ZM17.855 25.7948C17.8754 25.7835 17.8979 25.7744 17.9205 25.7609C19.9089 24.6673 20.6997 23.5195 21.6012 22.0192C22.9772 19.7259 23.637 16.1446 23.28 12.8932C22.9343 9.74129 21.6938 7.44568 19.8185 6.40633C20.8127 6.92148 21.6328 7.69874 22.2677 8.67709C23.1105 9.97628 23.6189 11.6031 23.7725 13.3451C23.9307 15.1459 23.7771 17.0394 23.35 18.7452C23.3026 18.935 23.2506 19.1226 23.1964 19.3056C22.871 20.4127 22.4259 21.4227 21.8723 22.2542C21.5605 22.7219 21.242 23.1602 20.8827 23.5715C20.8104 23.6528 20.7381 23.7341 20.6613 23.8155C20.4353 24.0572 20.1936 24.2877 19.9269 24.5091C19.8388 24.5837 19.7484 24.656 19.6535 24.7283C19.1497 25.1124 18.56 25.4671 17.8573 25.7925L17.855 25.7948ZM23.2393 23.3817C25.0559 21.2216 26.0659 17.9612 25.9371 14.6579C25.8851 13.3135 25.5959 12.0098 25.1011 10.8145C25.2502 11.1354 25.3858 11.463 25.5033 11.7997C25.6569 12.2448 25.7835 12.7034 25.8806 13.1757C26.0094 13.8038 26.084 14.4523 26.0998 15.1165C26.1495 17.08 25.7586 19.0096 25.004 20.6906C24.8526 21.0273 24.6876 21.3527 24.5069 21.6667C24.238 22.139 23.9375 22.5841 23.6053 22.9953C23.4946 23.1331 23.3817 23.2664 23.2642 23.3975C23.0586 23.6279 22.8417 23.8494 22.618 24.0595C22.8304 23.8448 23.036 23.6189 23.2348 23.3817H23.2393ZM8.04218 8.0241C7.93598 8.15289 7.83205 8.28394 7.73263 8.41951C5.94766 10.8597 5.55225 13.2954 5.49124 16.4338C5.46187 17.9883 5.64037 19.3372 6.03803 20.5551C6.35436 21.5244 6.82207 22.4462 7.40953 23.2845C5.74204 21.321 4.73432 18.7791 4.73432 16C4.73432 12.8842 5.99962 10.0644 8.04444 8.0241H8.04218Z" fill="#2BC7E0"/>
</svg>
